<?xml version="1.0" standalone="no"?>
<!DOCTYPE svg PUBLIC "-//W3C//DTD SVG 20010904//EN"
 "http://www.w3.org/TR/2001/REC-SVG-20010904/DTD/svg10.dtd">
<svg version="1.0" xmlns="http://www.w3.org/2000/svg"
 width="206.000000pt" height="206.000000pt" viewBox="0 0 206.000000 206.000000"
 preserveAspectRatio="xMidYMid meet">
<metadata>
Created by potrace 1.14, written by Peter Selinger 2001-2017
</metadata>
<g transform="translate(0.000000,206.000000) scale(0.100000,-0.100000)"
fill="#000000" stroke="none">
<path d="M878 2045 c-337 -53 -632 -275 -778 -588 -128 -274 -128 -580 0 -854
42 -91 123 -213 170 -258 l30 -29 0 97 0 97 45 0 45 0 0 240 0 240 25 0 c23 0
24 4 27 63 l3 62 55 7 c30 3 85 9 123 14 l67 7 0 -27 c0 -22 4 -26 30 -26 25
0 30 -4 30 -25 0 -20 5 -25 24 -25 17 0 26 -7 30 -25 5 -18 13 -25 31 -25 20
0 25 -5 25 -25 0 -29 -10 -29 155 -10 201 23 195 21 195 55 0 26 4 30 26 30
23 0 25 3 19 30 -6 27 -4 30 19 30 22 0 26 4 26 30 0 22 5 30 18 30 9 0 27 3
39 6 18 5 22 1 25 -23 3 -24 7 -28 31 -25 24 2 27 -1 27 -26 0 -16 2 -31 5
-34 3 -2 31 -1 62 4 32 5 106 14 166 21 l107 13 0 -48 c0 -45 2 -48 25 -48
l25 0 0 -145 0 -145 -25 0 -25 0 0 -187 c0 -215 -3 -212 90 -77 69 99 126 224
157 342 22 83 26 118 26 242 0 124 -4 159 -26 242 -109 412 -440 711 -854 773
-117 18 -179 18 -295 0z m522 -380 c0 -138 1 -145 20 -145 13 0 20 -7 20 -20
0 -17 8 -19 73 -22 66 -3 72 -5 75 -25 3 -17 10 -23 28 -23 19 0 24 -5 24 -25
0 -18 5 -25 20 -25 15 0 20 -7 20 -25 0 -20 5 -25 28 -26 15 -1 -4 -6 -43 -10
-46 -6 -71 -6 -73 1 -2 6 -43 10 -98 10 -87 0 -94 -1 -94 -20 0 -12 -8 -21
-22 -25 -51 -11 -213 -21 -216 -13 -2 4 -48 8 -102 8 -95 0 -99 -1 -102 -22
-3 -22 -11 -24 -153 -40 -191 -22 -225 -22 -225 -4 0 8 10 16 23 18 14 2 23
11 25 25 2 14 11 23 25 25 14 2 23 11 25 25 3 19 11 22 50 25 40 3 47 6 50 26
2 14 10 22 23 22 18 0 20 6 17 48 -3 40 -6 47 -25 50 -15 2 -23 10 -23 23 0
16 -7 19 -45 19 -38 0 -45 -3 -45 -20 0 -15 -7 -20 -25 -20 -18 0 -25 5 -25
20 0 15 7 20 25 20 23 0 25 3 25 50 0 47 -2 50 -25 50 -23 0 -25 -4 -25 -45 0
-41 -2 -45 -25 -45 -23 0 -25 4 -25 45 0 41 2 45 25 45 20 0 25 5 25 25 0 20
-5 25 -25 25 -19 0 -25 5 -25 21 0 12 -8 23 -20 26 -11 3 -20 14 -20 24 0 16
8 19 45 19 41 0 45 -2 45 -25 0 -20 5 -25 25 -25 18 0 25 -5 25 -20 0 -17 7
-20 45 -20 41 0 45 -2 45 -25 0 -20 5 -25 25 -25 23 0 25 -3 25 -50 l0 -50
173 0 c94 0 202 3 240 7 l67 6 0 68 c0 62 -2 69 -20 69 -13 0 -20 7 -20 20 0
13 7 20 20 20 17 0 20 7 20 50 l0 50 50 0 50 0 0 -145z m-870 -145 l0 -190 25
0 c20 0 25 -5 25 -25 0 -20 -5 -25 -25 -25 -23 0 -25 -4 -25 -45 0 -38 -3 -45
-20 -45 -19 0 -20 7 -20 260 0 253 1 260 20 260 19 0 20 -7 20 -190z m240 -70
c0 -17 -7 -20 -45 -20 -38 0 -45 3 -45 20 0 17 7 20 45 20 38 0 45 -3 45 -20z
m830 -225 c0 -20 5 -25 24 -25 23 0 42 -32 30 -52 -11 -18 -44 -7 -50 17 -4
18 -13 25 -31 25 -21 0 -24 -4 -21 -27 3 -24 -1 -28 -22 -28 -20 0 -25 5 -25
25 0 18 6 26 23 28 17 3 22 10 22 33 0 24 4 29 25 29 20 0 25 -5 25 -25z
m-100 -15 c0 -25 -4 -30 -25 -30 -21 0 -25 5 -25 30 0 25 4 30 25 30 21 0 25
-5 25 -30z m-525 -90 c20 0 25 -5 25 -24 0 -19 6 -25 28 -28 19 -2 28 -9 30
-25 2 -13 -1 -23 -6 -23 -6 0 -17 -3 -26 -6 -11 -4 -16 0 -16 12 0 31 -16 47
-39 39 -16 -5 -20 -12 -15 -30 4 -18 1 -25 -16 -30 -26 -8 -26 -8 -35 28 -6
24 -5 27 19 27 22 0 26 4 26 31 0 26 -3 30 -22 27 -16 -2 -24 -11 -27 -28 -6
-48 -51 -56 -51 -9 0 28 -3 31 -24 25 -17 -4 -26 -1 -30 10 -12 31 -6 44 18
44 18 0 25 -6 28 -22 2 -17 11 -24 31 -26 27 -3 29 -2 22 26 -5 27 -3 31 17
34 18 2 25 -3 31 -24 6 -21 14 -28 32 -28z"/>
<path d="M1444 986 c-3 -8 -4 -31 -2 -52 3 -37 3 -38 48 -38 39 -1 45 -4 48
-23 3 -21 8 -23 73 -23 l69 0 0 69 0 68 -67 6 c-111 11 -163 9 -169 -7z"/>
<path d="M1205 751 c-3 -2 -5 -13 -5 -23 0 -13 7 -18 25 -18 20 0 25 -5 25
-25 l0 -25 170 0 170 0 0 25 c0 23 4 25 45 25 42 0 45 2 45 26 0 24 -2 25 -47
22 -41 -3 -48 -6 -51 -25 -3 -23 -5 -23 -168 -23 l-164 0 0 23 c0 16 -6 23
-20 23 -12 0 -23 -2 -25 -5z"/>
</g>
</svg>
